<svg viewBox="0 0 1024 1024" version="1.1" xmlns="http://www.w3.org/2000/svg" width="40" height="40">
    <path d="M0 0m256 0l512 0q256 0 256 256l0 512q0 256-256 256l-512 0q-256 0-256-256l0-512q0-256 256-256Z"
          fill="#6A30F5"></path>
    <path d="M332.8 361.8688m38.4 0l0 0q38.4 0 38.4 38.4l0 345.6q0 38.4-38.4 38.4l0 0q-38.4 0-38.4-38.4l0-345.6q0-38.4 38.4-38.4Z"
          fill="#FFFFFF"></path>
    <path d="M652.8 272.2688m38.4 0l0 0q38.4 0 38.4 38.4l0 435.2q0 38.4-38.4 38.4l0 0q-38.4 0-38.4-38.4l0-435.2q0-38.4 38.4-38.4Z"
          fill="#FFFFFF"></path>
    <path d="M371.2 294.4m-128 0a128 128 0 1 0 256 0 128 128 0 1 0-256 0Z" fill="#FFFFFF"></path>
    <path d="M371.2 742.4128m128 0a128 128 0 1 0-256 0 128 128 0 1 0 256 0Z" fill="#FFFFFF"></path>
    <path d="M332.8 153.6h76.8v166.4h-76.8z" fill="#6A30F5"></path>
    <path d="M409.6 883.2h-76.8v-166.4h76.8z" fill="#6A30F5"></path>
    <path d="M614.4 640m25.6 0l115.2 0q25.6 0 25.6 25.6l0 179.2q0 25.6-25.6 25.6l-115.2 0q-25.6 0-25.6-25.6l0-179.2q0-25.6 25.6-25.6Z"
          fill="#FFFFFF"></path>
    <path d="M655.5904 166.4h66.3296c14.08 0 25.6 8.192 25.6 18.304l14.08 128.1792c0 10.112-11.52 18.304-25.6 18.304h-89.6c-14.08 0-25.6-8.192-25.6-18.304l9.1904-128.1792c0-10.112 11.456-18.304 25.6-18.304z"
          fill="#FFFFFF"></path>
</svg>
